<svg width="104" height="100" viewBox="0 0 104 100" fill="none" xmlns="http://www.w3.org/2000/svg">
<path opacity="0.6" fill-rule="evenodd" clip-rule="evenodd" d="M48.8776 0.894917C38.0292 2.44532 28.8238 11.0473 25.6486 22.6016L25.1016 24.5919L23.2399 24.8984C20.726 25.3124 17.6433 26.4632 15.1316 27.9256C2.88699 35.0547 -2.87917 51.0775 1.40792 66.0589C4.00534 75.1351 10.5545 82.6819 18.6196 85.8919C22.4848 87.4302 23.3956 87.5448 31.78 87.5463C39.1482 87.5478 39.43 87.5302 40.0089 87.0385C41.1474 86.0715 41.5029 85.2818 41.5029 83.7193C41.5029 82.1575 41.1481 81.3686 40.0102 80.4001C39.441 79.9158 39.0426 79.8837 31.8895 79.7458C23.8565 79.5912 23.2915 79.5117 19.9054 78.0601C17.2345 76.9147 14.0551 74.2864 11.8362 71.3891C5.27943 62.8279 5.27336 49.291 11.8225 40.7397C15.8049 35.5398 20.5388 32.8962 26.7889 32.3815C28.9509 32.2034 29.3023 32.1081 29.989 31.5116C30.9909 30.6414 31.1369 30.2993 31.633 27.6549C33.3294 18.6158 39.0476 11.7932 47.0023 9.3173C49.2251 8.62546 54.4232 8.56223 56.6543 9.19973C61.4253 10.5632 65.697 13.7228 68.5468 17.9963C69.9741 20.1366 71.616 24.049 72.1778 26.6479C72.4257 27.7947 72.6285 28.9173 72.6285 29.1426C72.6285 29.3681 72.9142 30.0014 73.2632 30.5502C74.0647 31.8102 75.137 32.2652 77.7258 32.4435C86.7431 33.0647 94.3757 40.4645 96.6376 50.7789C97.1527 53.1281 97.1527 58.9829 96.6376 61.3321C94.7073 70.1344 89.0757 76.6675 81.3363 79.0834C79.8547 79.5458 78.8758 79.6164 72.1559 79.7458C65.0029 79.8837 64.6044 79.9158 64.0353 80.4001C62.8974 81.3686 62.5425 82.1575 62.5425 83.7193C62.5425 85.2811 62.8976 86.0702 64.0355 87.0385C64.6044 87.5226 64.9593 87.5512 71.2061 87.6196C80.3279 87.7194 83.3954 87.1321 88.354 84.3363C100.627 77.4164 106.571 61.3502 102.416 46.3302C101.247 42.1073 98.9617 37.7562 96.0779 34.2653C92.0375 29.3738 86.288 25.9096 80.501 24.8797L78.9382 24.6015L78.4756 22.8535C77.1087 17.6878 74.0575 12.3727 70.2638 8.5484C66.3147 4.56704 60.9669 1.80214 55.6402 0.987541C54.0375 0.742272 50.3031 0.691144 48.8776 0.894917ZM50.6129 32.6976C50.255 32.8817 45.7974 37.7954 40.7073 43.6177C31.6883 53.9333 31.4488 54.2322 31.3052 55.3484C30.9311 58.261 33.2842 60.6284 35.6867 59.756C36.3246 59.5243 37.8932 57.8932 42.5302 52.6395L48.5462 45.8236L48.6035 71.4225C48.6603 96.8408 48.664 97.0258 49.108 97.7031C49.9578 98.9993 50.651 99.4037 52.0227 99.4037C53.3944 99.4037 54.0876 98.9993 54.9375 97.7031C55.3815 97.0258 55.3852 96.8408 55.442 71.4225L55.4993 45.8236L61.5153 52.6467C66.5891 58.401 67.6758 59.5179 68.4531 59.7775C70.9727 60.6195 73.3816 57.8769 72.6446 55.0058C72.4131 54.1037 71.0881 52.4839 63.2292 43.4947C58.0544 37.5756 53.7803 32.8836 53.3853 32.6885C52.5144 32.2582 51.4607 32.2617 50.6129 32.6976Z" fill="#DCCCFF"/>
</svg>
